<svg xmlns="http://www.w3.org/2000/svg" xmlns:xlink="http://www.w3.org/1999/xlink" width="30" height="30" viewBox="0 0 30 30">
  <defs>
    <rect id="rect-1" width="30" height="30" x="0" y="0"/>
    <mask id="mask-2" maskContentUnits="userSpaceOnUse" maskUnits="userSpaceOnUse">
      <rect width="30" height="30" x="0" y="0" fill="black"/>
      <use fill="white" xlink:href="#rect-1"/>
    </mask>
  </defs>
  <g>
    <use fill="none" xlink:href="#rect-1"/>
    <g mask="url(#mask-2)">
      <path fill="rgb(221,222,39)" fill-rule="evenodd" d="M15 30c-4.00665283 0-7.7734375-1.5600586-10.60662842-4.39355469C1.56030273 22.7734375 0 19.00683594 0 15S1.56030273 7.2265625 4.39337158 4.39355469C7.2265625 1.56005859 10.99334717 0 15 0s7.7734375 1.5600586 10.60662842 4.39355469C28.43969727 7.2265625 30 10.99316406 30 15s-1.56030273 7.7734375-4.39337158 10.60644531C22.7734375 28.43994141 19.00665283 30 15 30zm0-27.65625C8.02130127 2.34375 2.34375 8.02148438 2.34375 15c0 6.97851563 5.67755127 12.65625 12.65625 12.65625S27.65625 21.97851562 27.65625 15c0-6.97851563-5.67755127-12.65625-12.65625-12.65625zM9.51940918 20.38623047c1.48492432 1.48486328 3.43554687 2.22753906 5.38616943 2.22753906 1.95062256 0 3.90124512-.74267578 5.38616944-2.22753906.4576416-.45751953.45770263-1.19970703 0-1.65722656-.45776367-.45751953-1.19970703-.45751953-1.6572876 0-2.05615234 2.05615234-5.40161133 2.05615234-7.45776367 0C10.18066406 17.73291016 9.6321411 16.4086914 9.6321411 15c0-1.40820313.54852295-2.73291016 1.54455567-3.72851563 2.05615234-2.05664062 5.40161133-2.05615234 7.45776367 0 .45770264.45751954 1.199646.45751954 1.6572876 0 .4576416-.4580078.4576416-1.19970703 0-1.65771484-2.9699707-2.96972656-7.80249024-2.96972656-10.77233887 0C8.08062744 11.05273437 7.28833008 12.96533203 7.28833008 15s.79229736 3.9477539 2.2310791 5.38623047z"/>
    </g>
  </g>
</svg>
