<svg xmlns="http://www.w3.org/2000/svg" xmlns:xlink="http://www.w3.org/1999/xlink" width="30" height="30.059" viewBox="0 0 30 30.059">
  <defs>
    <rect id="rect-1" width="30" height="30.059" x="0" y="0"/>
    <rect id="rect-2" width="30" height="30.059" x="0" y="0"/>
    <mask id="mask-3" maskContentUnits="userSpaceOnUse" maskUnits="userSpaceOnUse">
      <rect width="30" height="30.059" x="0" y="0" fill="black"/>
      <use fill="white" xlink:href="#rect-2"/>
    </mask>
  </defs>
  <g>
    <use fill="none" xlink:href="#rect-2"/>
    <g mask="url(#mask-3)">
      <path fill="rgb(221,222,39)" fill-rule="evenodd" d="M12.21180916 30h4.81363106c.80403137 0 1.45830917-.6538086 1.45830917-1.45800781V17.6845703h3.43260574c.80403138 0 1.4580803-.65429687 1.4580803-1.45800781l.00183486-4.65234375c0-.52783203-.28757858-1.01660156-.75013732-1.27490234-.21442414-.1201172-.46393586-.18359375-.7214718-.18359375H18.4837494V8.27539063c0-.59960938.08049393-.81689454.14814758-.89404297.04104996-.04589844.2329979-.19726563.98680496-.19726563l2.47171402-.00097656c.8038025 0 1.45761872-.6538086 1.45761872-1.45800781V1.40527344c0-.8022461-.6529007-1.45654297-1.45555115-1.45800781l-3.67111206-.00585938c-2.26577759 0-4.19191933.7475586-5.57019043 2.1616211-1.37207985 1.40771484-2.09745026 3.37304687-2.09745026 5.68310546v2.33007813h-2.8083725c-.80402946 0-1.45807838.6538086-1.45807838 1.45800781v4.65234375c0 .80371094.65404892 1.45800781 1.45807839 1.45800781h2.8083725V28.5419922C10.75373077 29.3461914 11.40777968 30 12.21180915 30zm4.50953865-1.76220703h-4.20544815V16.89599609c0-.53710937-.4366436-.9736328-.97327614-.9736328H8.24944878v-4.04394532h3.29317474c.53663254 0 .97327614-.43701172.97327614-.97363281V7.7861328c0-3.75146484 2.2627964-6.08251953 5.9040947-6.08251953l3.36587142.0053711v3.71191406l-2.16762542.00097656c-.68982315 0-1.67938233.08203125-2.30728531.79345703-.51966095.5883789-.58960724 1.37158203-.58960724 2.0600586v2.62939453c0 .53662109.4366436.9736328.97327614.9736328h3.91924476l-.00160598 4.04394532h-3.9174099c-.53663063 0-.97350502.43652344-.97350502.97363281v11.34179688z"/>
    </g>
  </g>
</svg>
