<svg xmlns="http://www.w3.org/2000/svg" xmlns:xlink="http://www.w3.org/1999/xlink" width="85" height="82" viewBox="0 0 85 82">
  <defs>
    <ellipse id="ellipse-1" cx="42.5" cy="41" rx="42.5" ry="41"/>
    <mask id="mask-2" x="0" y="0" maskContentUnits="userSpaceOnUse" maskUnits="userSpaceOnUse">
      <rect width="85" height="82" x="0" y="0" fill="black"/>
      <use fill="white" xlink:href="#ellipse-1"/>
    </mask>
  </defs>
  <g>
    <g>
      <use fill="rgb(75,149,72)" xlink:href="#ellipse-1"/>
      <use fill-opacity="0" stroke="rgb(221,222,39)" stroke-linecap="butt" stroke-linejoin="miter" stroke-width="6" mask="url(#mask-2)" xlink:href="#ellipse-1"/>
    </g>
    <path fill="rgb(255,255,255)" fill-rule="evenodd" d="M82.44362842 49.00470323l-8.43732124 7.46008803s-2.56406473-1.5805349-6.66369952-7.46008803c-4.09963478-5.87955313-6.60372697-11.567592-6.60372697-11.567592s-2.09693232-4.53548434-4.5751709-12.0597972c-2.07940655-6.3133976-4.70567084-11.745444-6.54605425-14.73975215-.27632515-.44958167.28215925.29200066 0 0-4.40107851-4.5545834-7.02393167-2.67995493-7.02393167-2.67995493S7.66917474 20.28539965 7.66917474 53.24884535c0 32.96344569 34.92454913-41.6640017 34.92454913-41.6640017s1.61063933-2.52217615 5.32852067 0c.7364422.49959555.91497415 1.46467767 1.695411 2.80465514 4.04319593 6.94199847 8.21109976 13.56839082 2.14620135 18.22369356-6.63371325 5.09191437-7.99947774 3.48394141-6.63371325 7.23587832 1.3657645 3.7519369 2.62286382 5.16912132 2.62286382 5.16912132.11179794.12603483.19852456.27224125.25552888.43077851 0 0 .0862918.23998997 8.82816009 8.60386132 8.74186829 8.36387136 14.82830019 5.35990987 14.82830019 5.35990987s.37597626.302926 4.95792102-4.91414227 5.82071078-5.4938962 5.82071078-5.4938962z"/>
  </g>
</svg>
