<svg xmlns="http://www.w3.org/2000/svg" xmlns:xlink="http://www.w3.org/1999/xlink" width="512" height="512" viewBox="0 0 512 512">
  <defs>
    <rect id="rect-1" width="512" height="512" x="0" y="0"/>
    <mask id="mask-2" maskContentUnits="userSpaceOnUse" maskUnits="userSpaceOnUse">
      <rect width="512" height="512" x="0" y="0" fill="black"/>
      <use fill="white" xlink:href="#rect-1"/>
    </mask>
  </defs>
  <g>
    <use fill="none" xlink:href="#rect-1"/>
    <g mask="url(#mask-2)">
      <path fill="rgb(221,222,39)" fill-rule="evenodd" d="M14.99713898 30.00195313l.29869842.00048828c2.24221802 0 4.32099915-.0600586 6.34461975-.18310547 1.93733216-.11767578 3.70573426-.78710938 5.11433411-1.93603516 1.359375-1.10791015 2.28730774-2.6069336 2.7585907-4.45361328.41040039-1.60791016.43191528-3.18603516.45274353-4.71240234.0151062-1.09521485.03089905-2.39306641.03387451-3.71240235-.00297546-1.3256836-.01876831-2.62304687-.03387451-3.71875-.02082825-1.5258789-.04257202-3.10449218-.45274353-4.71240234-.47128296-1.84667969-1.3992157-3.34521485-2.7585907-4.453125C25.34619141.97167969 23.57778931.30224609 21.64045716.1845703 19.52734374.05615234 17.3551712-.00341797 15.00286101.00195313c-2.35665893-.00585938-4.52997589.05419921-6.6430893.18261718C6.4222107.3022461 4.65380097.9716797 3.24520875 2.12060547 1.88605499 3.22851562.95790863 4.72705078.48661804 6.57373047.07644654 8.1821289.05470276 9.7602539.03387451 11.2861328.01876831 12.38134766.00320435 13.67919921 0 15.00488281c.00320435 1.31933594.01876831 2.6171875.03387451 3.71240235.02082825 1.52685547.04257202 3.10498047.45274353 4.71240234.47129059 1.84667969 1.39943695 3.34521484 2.7585907 4.45361328 1.40859222 1.14892578 3.17700195 1.81835938 5.1143341 1.93603516 2.11311341.12890625 4.2859726.18847656 6.63759614.18261719zm6.50095367-2.52197266c-2.06344604.12548828-4.1875534.18359375-6.50095367.17822265-2.30698395.00585938-4.43177796-.05273437-6.495224-.17871093-1.46490479-.08886719-2.73501587-.56445313-3.77555084-1.41259766-.96179963-.78466797-1.62420655-1.86669922-1.96868897-3.21679687-.34150696-1.33837891-.3611908-2.77490235-.38018799-4.16455078-.01487732-1.0888672-.03044128-2.37841797-.03364563-3.68115235.00320435-1.30810547.01876831-2.59716797.03364563-3.68603516.0189972-1.38964843.03868103-2.82666015.380188-4.16503906.34448241-1.35009765 1.00688933-2.4321289 1.96868896-3.21679687C5.7668991 3.0883789 7.03701019 2.61279297 8.50191498 2.52392578c2.06344604-.12548828 4.18778229-.18408203 6.50071716-.17871094 2.3079071-.0048828 4.43201447.05322266 6.49546051.17871094 1.46488953.08886719 2.73501587.56445313 3.77554321 1.41259766.96180726.78466797 1.62420655 1.86669922 1.96868897 3.21679687.34150696 1.3383789.3611908 2.77539063.38018799 4.16503907.01487732 1.08789062.03044128 2.37646484.03364563 3.68359374-.00320435 1.30664063-.01876831 2.59570313-.03364563 3.68359376-.0189972 1.38964843-.03868103 2.82617187-.380188 4.16455078-.34448241 1.35009765-1.0068817 2.4321289-1.96868896 3.21679687-1.04052734.84863281-2.31065368 1.32373047-3.7755432 1.41308594zM24.8440094 7.09130859c0 .97119141-.78692627 1.7578125-1.7578888 1.7578125-.97071838 0-1.75787353-.78662109-1.75787353-1.7578125 0-.97070312.78715515-1.7578125 1.75787354-1.7578125.97096252 0 1.75788879.78710938 1.75788879 1.7578125zm-9.9027176 15.23486328c-4.03855132 0-7.32450103-3.28564453-7.32450103-7.32421874 0-4.0390625 3.2859497-7.32470704 7.32450104-7.32470704 4.03876495 0 7.32450104 3.28564454 7.32450104 7.32470704 0 4.03857421-3.28573609 7.32421874-7.32450104 7.32421874zm-4.98065948-7.32421874c0-2.74609376 2.23442841-4.98046876 4.98065949-4.98046876 2.74645996 0 4.98065948 2.234375 4.98065948 4.98046876 0 2.74658203-2.23419952 4.98095703-4.98065948 4.98095703-2.74623108 0-4.98065949-2.234375-4.98065949-4.98095703z"/>
    </g>
  </g>
</svg>
