<svg xmlns="http://www.w3.org/2000/svg" width="29.473" height="30.118" viewBox="0 0 29.473 30.118">
  <path fill="rgb(221,222,39)" fill-rule="evenodd" d="M14.7335205 30.11767578l.29344178.00048828c2.20280457 0 4.2450409-.0600586 6.23309326-.18359375 1.90327454-.11865234 3.64060974-.79052734 5.02442932-1.94384765 1.335495-1.1123047 2.24710083-2.61669922 2.71009827-4.47070313.40319824-1.61425781.42433166-3.19873047.4447937-4.73095703.0148468-1.09960938.03034973-2.40234375.03327942-3.72705078-.00292969-1.3305664-.01843262-2.63330078-.03327942-3.73291016-.02046204-1.53222656-.04182434-3.11669922-.4447937-4.73095703-.46299744-1.8540039-1.37460327-3.35839844-2.71009827-4.47070312C24.90066528.97412109 23.16333008.30224609 21.26005554.18359375c-2.0759735-.12890625-4.20996094-.18847656-6.5209198-.18310547-2.31523132-.00585937-4.4503479.05419922-6.52631378.18310547-1.90350342.11865234-3.64082336.79052734-5.0246582 1.94384766C1.85290527 3.23974609.94107056 4.74414063.47806549 6.59814453.07510376 8.21240234.05374146 9.796875.03327942 11.32910156.01844025 12.42871094.00315094 13.73144531 0 15.06201172c.00315094 1.32470703.01844025 2.6274414.03327942 3.72705078.02046204 1.53271484.04182434 3.11669922.44478607 4.73095703.46300507 1.8540039 1.37483978 3.35839844 2.71009827 4.47070313 1.38383484 1.1533203 3.12115478 1.8251953 5.02442932 1.94384765 2.07598114.12890625 4.21063995.18896485 6.52092743.18310547zm6.38667298-2.53173828c-2.0271759.12597656-4.11393738.18457031-6.38667297.17871094-2.26643372.00585937-4.35388184-.05273438-6.38105011-.17919922-1.43915558-.08935547-2.68694306-.56640625-3.70918274-1.41796875-.94489288-.78759766-1.59565735-1.87402344-1.93408203-3.22949219-.33550263-1.34326172-.35484314-2.78613281-.37350464-4.18115234-.01461792-1.09277344-.02990723-2.38769531-.03305817-3.69482422.00315094-1.31347656.01844025-2.60791016.03305817-3.7006836.0186615-1.3955078.03800201-2.83789062.37350464-4.18164062.33842468-1.35498047.98918915-2.44140625 1.93408203-3.2290039 1.02223968-.8515625 2.27002716-1.32910157 3.70918274-1.41845704 2.02716827-.12597656 4.11415863-.18457031 6.38645172-.17919922 2.26733398-.0048828 4.35409546.05322266 6.38127136.17919922 1.43914795.08935547 2.68693543.56689453 3.70918274 1.41845703.94490051.78759766 1.59565735 1.87402344 1.93408203 3.22900391.33551026 1.34375.35484314 2.7866211.37350464 4.18164063.01461792 1.09179687.02990723 2.3852539.03305054 3.6977539-.00314331 1.31201172-.01843262 2.60595703-.03305054 3.6977539-.0186615 1.39501954-.03799438 2.83789063-.37350464 4.18115235-.33842468 1.35546875-.98918152 2.44189453-1.93408203 3.22949219-1.02224731.8515625-2.27003479 1.32910156-3.70918274 1.41845703zm3.28710938-20.46826172c0 .97460938-.77310181 1.76464844-1.72698975 1.76464844-.95365906 0-1.72697449-.79003906-1.72697449-1.76464844 0-.97460937.77331543-1.76464844 1.72697449-1.76464844.95388794 0 1.72698975.79003907 1.72698975 1.76464844zm-9.72865296 15.2944336c-3.96755981 0-7.19574737-3.29833985-7.19574737-7.35302735S10.71109009 7.7060547 14.6786499 7.7060547c3.96777344 0 7.19573975 3.29833984 7.19573975 7.35302734s-3.22796631 7.35302734-7.19573975 7.35302734zm-4.89311218-7.35302735c0-2.75683594 2.19515991-5 4.89311218-5 2.69818115 0 4.89309693 2.24316406 4.89309693 5s-2.19491578 5-4.89309693 5c-2.69795227 0-4.89311218-2.24316406-4.89311218-5z"/>
</svg>
