<svg xmlns="http://www.w3.org/2000/svg" xmlns:xlink="http://www.w3.org/1999/xlink" width="30" height="30" viewBox="0 0 30 30">
  <defs>
    <rect id="rect-1" width="30" height="30" x="0" y="0"/>
    <mask id="mask-2" maskContentUnits="userSpaceOnUse" maskUnits="userSpaceOnUse">
      <rect width="30" height="30" x="0" y="0" fill="black"/>
      <use fill="white" xlink:href="#rect-1"/>
    </mask>
  </defs>
  <g>
    <use fill="none" xlink:href="#rect-1"/>
    <g mask="url(#mask-2)">
      <path fill="rgb(221,222,39)" fill-rule="evenodd" d="M29.08951569 5.49853516c.19412994-.14648438.46035003-.1538086.66129303-.01757813.20150756.13623047.29346466.38623047.22818756.62060547-.06073761.2211914-.45523835 1.11572266-2.98064423 3.46435547.03121948 2.01904297-.34738922 14.34033203-13.79917145 17.52832031-.13623047.03027344-1.56156158.32763672-3.57041168.32763672-2.65538788 0-6.33195496-.51953125-9.40568924-2.86572266-.208889-.1586914-.28041077-.4399414-.17539978-.67919922.10557938-.24023437.36101532-.37646484.61985779-.3305664.04711151.00830078 4.3327446.73828125 7.24470901-1.52929688-1.41625213-.34228515-3.64193725-1.35009765-4.54844665-4.3173828-.05903626-.19238282-.01078797-.40185548.1254425-.5498047.12147522-.13232422.29914093-.19726562.47397614-.18066406-1.3123703-.91845703-2.7076149-2.57910156-2.66049957-5.47851562.00397491-.21289063.1260147-.40625.31730651-.50048828.1918602-.09423829.41948319-.0732422.58977128.05419921.09195709.06738282.24578476.16748047.4353752.2685547C1.57234574 9.78271483.39847947 7.11035155 2.15246583 4.0673828c.09252548-.16113281.25770569-.26611328.44275284-.28173828.18505096-.01660156.36555862.05957031.48476028.20117188.05108643.06103515 5.0008545 5.90136718 11.09609986 5.97021484-.04257203-.30322266-.06414032-.609375-.06414032-.91601563 0-3.56347656 2.86087036-6.46289062 6.37792968-6.46289062 1.64273072 0 3.18612671.62304688 4.37475586 1.76074219.77424622-.02050782 2.07640076-.22070313 3.38365937-1.17089844.16744995-.12158203.3876953-.1430664.5755844-.0546875.1873169.08789063.31163026.27148438.32468415.47802734.01248932.19970703-.01248932 1.06933594-1.17443848 2.37158203.44615937-.11816406.86053467-.27148437 1.11540223-.46435546zm-3.23153687 3.86376953c-.01135254-.171875.05506134-.33935547.18164063-.4555664.77879333-.7163086 1.34812927-1.28759766 1.76477813-1.73486329-.76233673.16503906-1.43668365.2241211-1.5689392.23486328-.24635316.02246094-.48249055-.12451172-.57388306-.35839844-.09138489-.23339843-.01930237-.49853515.17767334-.6533203.69648742-.54736329 1.16989135-1.02832032 1.49230957-1.4296875-1.11710358.44824218-2.10592652.51904296-2.70761109.5102539-.14985656-.0024414-.29347229-.06445313-.3979187-.17236328-.993927-1.02490235-2.32048034-1.58935547-3.73445892-1.58935547-2.89095306 0-5.24323273 2.38964843-5.24323273 5.32763672 0 .44726562.05563355.89453125.16461945 1.32910156.04087066.1640625.00681305.33740234-.09309387.47363281-.1004715.13623047-.25656891.22167969-.42515564.23144531-5.75637055.33007813-10.50746918-4.04345703-12.11159897-5.7265625-1.4775505 3.57226563 1.63875961 6.34179688 1.78066635 6.46533204.16744995.1455078.2350006.37451171.17312622.58740234-.06186676.21289062-.24124146.37011719-.46035004.40332031-.6368866.09716797-1.281147-.08300781-1.78463745-.30322266.46432114 3.61962891 3.78270722 4.36181641 3.93540192 4.39404297.2395401.05078125.42005157.24853516.44729614.49169922.02724457.24365235-.1038742.4765625-.32639313.57958985-.5398178.24853515-1.21757507.28271484-1.76704406.25146484 1.3645935 2.83496094 4.34523773 2.8569336 4.37361908 2.8383789h.00567627c.22194671 0 .42459106.1303711.51654815.33300782.09309387.20410156.0567627.44482422-.09309387.61230469-1.98274231 2.22607422-4.82885742 2.74609375-6.8138733 2.80126953 4.69773866 2.32714844 10.11693574 1.19677734 10.1788025 1.18359375 13.63285828-3.23046875 12.94488525-16.08007813 12.90912628-16.625z"/>
    </g>
  </g>
</svg>
